# xmcd
#
# Track frame offsets:
#	150
#	14324
#	32174
#	47718
#	69194
#	88302
#	101323
#	118214
#	131939
#	148031
#	161240
#
# Disc length: 2389 seconds
#
# Revision: 0
# Processed by: cddbd v1.5.2PL0 Copyright (c) Steve Scherf et al.
# Submitted via: EasyCDDAExtractor 10.2.0.1
#
DISCID=9c09530b
DTITLE=The Weathers Family - A Light Up In Heaven
DYEAR=2002
DGENRE=Gospel
TTITLE0=A Light Up In Heaven
TTITLE1=Workin On A Building
TTITLE2=Sunny Side Of Life
TTITLE3=Pathway Home
TTITLE4=Chicken Tracks
TTITLE5=Who'll Sing For Me
TTITLE6=God Loves His Children
TTITLE7=I Found A Way
TTITLE8=He Gives Me Strength
TTITLE9=I'm Using My Bible For A Roadmap
TTITLE10=Amazing Grace
EXTD=
EXTT0=
EXTT1=
EXTT2=
EXTT3=
EXTT4=
EXTT5=
EXTT6=
EXTT7=
EXTT8=
EXTT9=
EXTT10=
PLAYORDER=
